<svg width="760" height="265" viewBox="0 0 760 265" fill="none" xmlns="http://www.w3.org/2000/svg">
<path d="M652.718 1.38574C657.385 1.38574 661.169 5.16971 661.169 9.83691V65.9268C665.444 60.1034 670.654 55.5526 676.798 52.29L677.482 51.9336C684.948 48.0586 693.263 46.1289 702.406 46.1289C712.969 46.1289 722.56 48.557 731.156 53.4258L731.958 53.875C740.182 58.5819 746.657 65.1777 751.376 73.6436C756.25 82.3876 758.675 92.3333 758.675 103.454C758.675 114.575 756.25 124.52 751.376 133.264C746.506 142 739.766 148.814 731.167 153.687C722.568 158.559 712.974 160.989 702.406 160.989C692.978 160.989 684.447 158.988 676.836 154.967L676.829 154.963V154.962C670.296 151.444 664.864 146.553 660.536 140.306V151.785C660.536 156.286 656.887 159.934 652.387 159.934C647.886 159.934 644.238 156.286 644.237 151.785V9.86621C644.238 5.18292 648.034 1.38596 652.718 1.38574ZM701.351 61.1611C693.629 61.1612 686.694 62.9516 680.521 66.5176L680.516 66.5215C674.495 69.9425 669.695 74.8679 666.119 81.3271L666.12 81.3281C662.687 87.7833 660.958 95.1509 660.958 103.454C660.958 111.754 662.685 119.119 666.116 125.572C669.693 132.035 674.493 137.037 680.521 140.601C686.692 144.026 693.628 145.746 701.351 145.746C708.935 145.746 715.806 144.024 721.983 140.593C728.147 137.029 732.939 132.031 736.371 125.579L736.379 125.565C739.948 119.113 741.744 111.751 741.744 103.454C741.744 95.1571 739.948 87.7943 736.379 81.3418L736.371 81.3281C732.939 74.8749 728.145 69.9495 721.983 66.5264L721.977 66.5225L721.97 66.5176C715.795 62.9499 708.929 61.1611 701.351 61.1611Z" fill="black" stroke="black" stroke-width="1.94639"/>
<path d="M566.003 46.5811C575.149 46.5811 583.399 48.5115 590.729 52.3926H590.729C597.288 55.6762 602.794 60.344 607.24 66.3818V55.8916C607.24 51.2162 611.031 47.4258 615.706 47.4258C620.381 47.4259 624.172 51.2163 624.172 55.8916V152.237C624.172 156.738 620.523 160.386 616.022 160.386C611.522 160.386 607.873 156.738 607.873 152.237V140.753C603.526 147.007 598.021 151.901 591.361 155.419L591.36 155.418C583.888 159.44 575.428 161.441 566.003 161.441C555.436 161.441 545.841 159.011 537.242 154.139C528.643 149.266 521.903 142.452 517.033 133.716C512.16 124.972 509.733 115.027 509.733 103.906C509.733 92.7854 512.159 82.8397 517.033 74.0957C521.904 65.3567 528.647 58.6109 537.253 53.8779C545.849 49.0092 555.44 46.5811 566.003 46.5811ZM567.27 61.6133C559.547 61.6133 552.612 63.4036 546.439 66.9697L546.434 66.9736C540.413 70.3947 535.613 75.32 532.037 81.7793L532.038 81.7803C528.605 88.2354 526.876 95.6031 526.876 103.906C526.876 112.206 528.603 119.571 532.034 126.024C535.611 132.487 540.412 137.489 546.439 141.053C552.61 144.478 559.547 146.198 567.27 146.198C574.855 146.198 581.651 144.476 587.683 141.049C593.849 137.484 598.645 132.485 602.078 126.031L602.086 126.018C605.655 119.565 607.451 112.203 607.451 103.906C607.451 95.6093 605.655 88.2465 602.086 81.7939L602.078 81.7803C598.646 75.3271 593.852 70.4016 587.69 66.9785L587.68 66.9717L587.668 66.9648C581.639 63.4022 574.847 61.6133 567.27 61.6133Z" fill="black" stroke="black" stroke-width="1.94639"/>
<path d="M464.473 1.02637C469.148 1.02637 472.938 4.81687 472.938 9.49219V126.521C472.939 132.985 474.449 137.781 477.326 141.06L477.598 141.347C480.452 144.272 484.708 145.809 490.538 145.809C491.603 145.809 492.622 145.761 493.595 145.667C495.581 145.475 497.63 146.018 499.236 147.109C500.849 148.205 502.07 149.896 502.249 152.004C502.546 155.503 500.454 158.955 496.863 159.723C494.035 160.328 491.152 160.63 488.217 160.63C478.04 160.63 470.021 157.757 464.304 151.894L464.295 151.885C458.731 146.028 456.007 137.952 456.007 127.787V9.49219C456.007 4.81693 459.797 1.02647 464.473 1.02637Z" fill="black" stroke="black" stroke-width="1.94639"/>
<path d="M326.91 1.38574C331.586 1.38574 335.376 5.17624 335.376 9.85156V65.9268C339.651 60.1034 344.861 55.5526 351.005 52.29L351.689 51.9336C359.155 48.0586 367.47 46.1289 376.613 46.1289C387.176 46.1289 396.767 48.557 405.363 53.4258L406.165 53.875C414.389 58.5819 420.864 65.1777 425.583 73.6436C430.457 82.3876 432.883 92.3333 432.883 103.454C432.883 114.575 430.457 124.52 425.583 133.264C420.713 142 413.973 148.814 405.374 153.687C396.775 158.559 387.181 160.989 376.613 160.989C367.185 160.989 358.654 158.988 351.043 154.967L351.037 154.963C344.503 151.445 339.071 146.554 334.743 140.306V151.785C334.743 156.286 331.094 159.934 326.594 159.934C322.093 159.934 318.445 156.286 318.444 151.785V9.85156C318.444 5.17631 322.235 1.38585 326.91 1.38574ZM375.558 61.1611C367.836 61.1612 360.901 62.9516 354.729 66.5176L354.723 66.5215C348.702 69.9425 343.902 74.8679 340.326 81.3271L340.327 81.3281C336.894 87.7833 335.165 95.1509 335.165 103.454C335.165 111.754 336.892 119.119 340.323 125.572C343.9 132.035 348.7 137.037 354.728 140.601C360.899 144.026 367.835 145.746 375.558 145.746C383.142 145.746 390.013 144.024 396.19 140.593C402.354 137.029 407.147 132.031 410.578 125.579L410.582 125.572L410.585 125.565C414.154 119.113 415.951 111.751 415.951 103.454C415.951 95.1571 414.154 87.7943 410.585 81.3418L410.582 81.335L410.578 81.3281C407.146 74.8749 402.352 69.9495 396.19 66.5264L396.184 66.5225L396.177 66.5176C390.002 62.9499 383.136 61.1611 375.558 61.1611Z" fill="black" stroke="black" stroke-width="1.94639"/>
<mask id="path-5-inside-1_4044_8663" fill="white">
<path d="M227.83 47.0676C237.193 43.7564 247.127 43.1853 257.632 45.2405C267.566 47.1816 276.131 51.1781 283.438 57.344H283.553C290.86 63.2815 296.112 70.8179 299.424 79.9524C301.708 86.2325 302.735 92.9697 302.507 100.049C302.392 105.53 297.483 109.526 292.002 109.64H211.045C212.415 117.747 215.841 124.598 221.55 129.965C227.373 135.446 234.909 138.985 244.158 140.812C253.864 142.753 265.739 139.899 275.217 135.217C280.013 132.933 286.064 134.19 288.576 138.871C290.517 142.525 289.719 147.093 286.407 149.605C281.84 152.916 276.244 156.113 265.625 158.282C258.203 159.767 246.899 159.31 240.048 158.054C224.975 155.199 218.581 151.432 210.474 145.037C202.481 138.529 196.771 130.422 193.46 120.945C192.204 117.291 191.519 113.408 191.062 109.411L211.045 109.64C206.249 109.64 202.709 105.301 202.709 100.505C202.709 95.7096 206.592 91.7131 211.502 91.7131H191.634C191.748 91.3706 191.748 90.914 191.748 90.5715C193.803 79.9526 197.913 70.8175 204.308 63.1672C210.816 55.517 218.581 50.1506 227.83 47.0676ZM254.207 62.0256C247.356 60.6554 240.847 61.1119 234.681 63.1672C228.743 65.3367 223.605 68.9911 219.494 74.2434C215.726 78.9248 213.101 84.8624 211.616 91.7131H283.21C282.639 84.2914 280.012 79.4955 275.103 73.7864C269.85 67.6207 262.885 63.7384 254.207 62.0256Z"/>
</mask>
<path d="M227.83 47.0676C237.193 43.7564 247.127 43.1853 257.632 45.2405C267.566 47.1816 276.131 51.1781 283.438 57.344H283.553C290.86 63.2815 296.112 70.8179 299.424 79.9524C301.708 86.2325 302.735 92.9697 302.507 100.049C302.392 105.53 297.483 109.526 292.002 109.64H211.045C212.415 117.747 215.841 124.598 221.55 129.965C227.373 135.446 234.909 138.985 244.158 140.812C253.864 142.753 265.739 139.899 275.217 135.217C280.013 132.933 286.064 134.19 288.576 138.871C290.517 142.525 289.719 147.093 286.407 149.605C281.84 152.916 276.244 156.113 265.625 158.282C258.203 159.767 246.899 159.31 240.048 158.054C224.975 155.199 218.581 151.432 210.474 145.037C202.481 138.529 196.771 130.422 193.46 120.945C192.204 117.291 191.519 113.408 191.062 109.411L211.045 109.64C206.249 109.64 202.709 105.301 202.709 100.505C202.709 95.7096 206.592 91.7131 211.502 91.7131H191.634C191.748 91.3706 191.748 90.914 191.748 90.5715C193.803 79.9526 197.913 70.8175 204.308 63.1672C210.816 55.517 218.581 50.1506 227.83 47.0676ZM254.207 62.0256C247.356 60.6554 240.847 61.1119 234.681 63.1672C228.743 65.3367 223.605 68.9911 219.494 74.2434C215.726 78.9248 213.101 84.8624 211.616 91.7131H283.21C282.639 84.2914 280.012 79.4955 275.103 73.7864C269.85 67.6207 262.885 63.7384 254.207 62.0256Z" fill="black"/>
<path d="M227.83 47.0676L228.446 48.9141L228.462 48.9085L228.479 48.9026L227.83 47.0676ZM257.632 45.2405L257.258 47.1507L257.259 47.1507L257.632 45.2405ZM283.438 57.344L282.183 58.8316L282.727 59.2904H283.438V57.344ZM283.553 57.344L284.78 55.8334L284.244 55.3976H283.553V57.344ZM299.424 79.9524L297.594 80.6157L297.595 80.6176L299.424 79.9524ZM302.507 100.049L300.561 99.9863L300.561 99.9974L300.561 100.008L302.507 100.049ZM292.002 109.64V111.586H292.022L292.042 111.586L292.002 109.64ZM221.55 129.965L222.884 128.548L222.883 128.547L221.55 129.965ZM244.158 140.812L244.54 138.903L244.535 138.902L244.158 140.812ZM275.217 135.217L274.38 133.46L274.367 133.466L274.355 133.472L275.217 135.217ZM288.576 138.871L290.295 137.958L290.291 137.951L288.576 138.871ZM286.407 149.605L287.55 151.181L287.567 151.168L287.584 151.155L286.407 149.605ZM265.625 158.282L266.007 160.191L266.015 160.189L265.625 158.282ZM240.048 158.054L239.686 159.966L239.697 159.968L240.048 158.054ZM210.474 145.037L209.245 146.547L209.256 146.556L209.268 146.566L210.474 145.037ZM193.46 120.945L191.619 121.577L191.623 121.587L193.46 120.945ZM191.062 109.411L191.085 107.465L188.878 107.44L189.129 109.632L191.062 109.411ZM202.709 100.505L200.763 100.505V100.505H202.709ZM191.634 91.7131L189.787 91.0982L188.934 93.6595H191.634V91.7131ZM191.748 90.5715L189.837 90.2017L189.802 90.3849V90.5715H191.748ZM204.308 63.1672L202.825 61.906L202.82 61.9125L202.814 61.919L204.308 63.1672ZM254.207 62.0256L253.825 63.9342L253.83 63.9352L254.207 62.0256ZM234.681 63.1672L234.065 61.3207L234.039 61.3295L234.013 61.3391L234.681 63.1672ZM219.494 74.2434L221.01 75.4638L221.019 75.4535L221.027 75.443L219.494 74.2434ZM211.616 91.7131L209.714 91.301L209.203 93.6595H211.616V91.7131ZM283.21 91.7131V93.6595H285.312L285.151 91.5638L283.21 91.7131ZM275.103 73.7864L273.621 75.0486L273.627 75.0555L275.103 73.7864ZM227.83 47.0676L228.479 48.9026C237.482 45.7189 247.059 45.1554 257.258 47.1507L257.632 45.2405L258.006 43.3303C247.195 41.2152 236.905 41.7939 227.181 45.2326L227.83 47.0676ZM257.632 45.2405L257.259 47.1507C266.891 49.0329 275.147 52.8944 282.183 58.8316L283.438 57.344L284.694 55.8564C277.115 49.4618 268.241 45.3302 258.005 43.3302L257.632 45.2405ZM283.438 57.344V59.2904H283.553V57.344V55.3976H283.438V57.344ZM283.553 57.344L282.325 58.8546C289.345 64.5579 294.396 71.7953 297.594 80.6157L299.424 79.9524L301.254 79.2891C297.828 69.8404 292.376 62.005 284.78 55.8334L283.553 57.344ZM299.424 79.9524L297.595 80.6176C299.788 86.6493 300.782 93.138 300.561 99.9863L302.507 100.049L304.452 100.112C304.688 92.8014 303.627 85.8156 301.253 79.2872L299.424 79.9524ZM302.507 100.049L300.561 100.008C300.473 104.227 296.633 107.597 291.961 107.694L292.002 109.64L292.042 111.586C298.333 111.455 304.312 106.832 304.453 100.09L302.507 100.049ZM292.002 109.64V107.694H211.045V109.64V111.586H292.002V109.64ZM211.045 109.64L209.126 109.964C210.558 118.44 214.163 125.693 220.217 131.383L221.55 129.965L222.883 128.547C217.518 123.504 214.272 117.054 212.964 109.316L211.045 109.64ZM221.55 129.965L220.216 131.382C226.361 137.166 234.256 140.84 243.781 142.721L244.158 140.812L244.535 138.902C235.562 137.13 228.385 133.725 222.884 128.548L221.55 129.965ZM244.158 140.812L243.776 142.72C254.058 144.777 266.387 141.75 276.079 136.962L275.217 135.217L274.355 133.472C265.092 138.048 253.669 140.729 244.54 138.903L244.158 140.812ZM275.217 135.217L276.054 136.974C280.143 135.027 284.953 136.236 286.861 139.792L288.576 138.871L290.291 137.951C287.175 132.144 279.882 130.84 274.38 133.46L275.217 135.217ZM288.576 138.871L286.857 139.784C288.391 142.672 287.714 146.17 285.231 148.054L286.407 149.605L287.584 151.155C291.723 148.015 292.643 142.378 290.295 137.958L288.576 138.871ZM286.407 149.605L285.265 148.029C280.903 151.191 275.561 154.266 265.235 156.375L265.625 158.282L266.015 160.189C276.927 157.96 282.777 154.641 287.55 151.181L286.407 149.605ZM265.625 158.282L265.243 156.374C258.127 157.797 247.081 157.365 240.399 156.139L240.048 158.054L239.697 159.968C246.716 161.255 258.279 161.737 266.007 160.191L265.625 158.282ZM240.048 158.054L240.41 156.142C232.977 154.734 227.777 153.118 223.472 151.109C219.172 149.103 215.681 146.666 211.679 143.509L210.474 145.037L209.268 146.566C213.373 149.803 217.134 152.447 221.826 154.637C226.513 156.824 232.046 158.52 239.686 159.966L240.048 158.054ZM210.474 145.037L211.703 143.528C203.983 137.242 198.488 129.433 195.297 120.303L193.46 120.945L191.623 121.587C195.055 131.411 200.978 139.816 209.245 146.547L210.474 145.037ZM193.46 120.945L195.301 120.312C194.109 116.846 193.445 113.119 192.996 109.19L191.062 109.411L189.129 109.632C189.593 113.696 190.299 117.735 191.619 121.577L193.46 120.945ZM191.062 109.411L191.04 111.358L211.023 111.586L211.045 109.64L211.067 107.694L191.085 107.465L191.062 109.411ZM211.045 109.64V107.694C207.548 107.694 204.655 104.464 204.655 100.505H202.709H200.763C200.763 106.138 204.951 111.586 211.045 111.586V109.64ZM202.709 100.505L204.655 100.505C204.656 96.7683 207.683 93.6595 211.502 93.6595V91.7131V89.7668C205.501 89.7668 200.763 94.6509 200.763 100.505L202.709 100.505ZM211.502 91.7131V89.7668H191.634V91.7131V93.6595H211.502V91.7131ZM191.634 91.7131L193.48 92.3281C193.714 91.6262 193.694 90.8241 193.694 90.5715H191.748H189.802C189.802 90.7512 189.801 90.8834 189.792 91.0033C189.788 91.0593 189.784 91.0966 189.78 91.1184C189.776 91.1417 189.776 91.1317 189.787 91.0982L191.634 91.7131ZM191.748 90.5715L193.659 90.9414C195.66 80.6033 199.644 71.7817 205.801 64.4155L204.308 63.1672L202.814 61.919C196.182 69.8533 191.947 79.3018 189.837 90.2017L191.748 90.5715ZM204.308 63.1672L205.79 64.4285C212.082 57.0331 219.553 51.8784 228.446 48.9141L227.83 47.0676L227.215 45.2211C217.61 48.4227 209.551 54.0009 202.825 61.906L204.308 63.1672ZM254.207 62.0256L254.589 60.117C247.408 58.6809 240.555 59.1576 234.065 61.3207L234.681 63.1672L235.296 65.0137C241.139 63.0663 247.304 62.63 253.825 63.9342L254.207 62.0256ZM234.681 63.1672L234.013 61.3391C227.737 63.632 222.298 67.5024 217.961 73.0438L219.494 74.2434L221.027 75.443C224.911 70.4797 229.749 67.0415 235.349 64.9954L234.681 63.1672ZM219.494 74.2434L217.978 73.023C213.982 77.987 211.248 84.2195 209.714 91.301L211.616 91.7131L213.518 92.1253C214.953 85.5053 217.47 79.8626 221.01 75.4638L219.494 74.2434ZM211.616 91.7131V93.6595H283.21V91.7131V89.7668H211.616V91.7131ZM283.21 91.7131L285.151 91.5638C284.539 83.6082 281.667 78.4345 276.578 72.5172L275.103 73.7864L273.627 75.0555C278.358 80.5565 280.739 84.9745 281.269 91.8624L283.21 91.7131ZM275.103 73.7864L276.584 72.5242C271.015 65.9867 263.641 61.9038 254.584 60.1161L254.207 62.0256L253.83 63.9352C262.128 65.573 268.685 69.2546 273.621 75.0486L275.103 73.7864Z" fill="black" mask="url(#path-5-inside-1_4044_8663)"/>
<path d="M166.727 46.5811C171.402 46.5811 175.192 50.3716 175.192 55.0469V108.971C175.192 125.577 171.218 138.438 163.122 147.401L163.117 147.407C155 156.249 143.095 160.597 127.576 160.597C117.749 160.597 109.416 158.746 102.623 154.988L102.612 154.982L102.602 154.976C96.4508 151.365 91.6255 145.861 88.1016 138.523C84.5773 145.729 79.7561 151.161 73.6172 154.765C66.9559 158.674 58.6121 160.597 48.6426 160.597C33.1243 160.597 21.2196 156.249 13.1025 147.407L13.0967 147.402L13.8193 146.75L13.0967 147.401C5.00129 138.438 1.02637 125.577 1.02637 108.971V55.0469C1.02647 50.3716 4.81693 46.5812 9.49219 46.5811C14.1675 46.5811 17.9579 50.3716 17.958 55.0469V107.705C17.958 120.695 20.4779 130.141 25.3428 136.222C30.1615 142.105 37.85 145.144 48.6426 145.144C59.2858 145.144 66.9855 142.04 71.9512 136.001L71.959 135.991C77.0913 129.913 79.749 120.407 79.749 107.282V55.0469C79.7491 50.3716 83.5396 46.5812 88.2148 46.5811C92.8902 46.5811 96.6806 50.3716 96.6807 55.0469V107.282C96.6807 120.412 99.2706 129.922 104.269 136.001C109.232 142.037 116.999 145.143 127.787 145.144C138.293 145.144 145.849 142.108 150.672 136.214L150.674 136.212C155.673 130.132 158.261 120.691 158.261 107.705V55.0469C158.261 50.3716 162.051 46.5812 166.727 46.5811Z" fill="black" stroke="black" stroke-width="1.94639"/>
<path d="M730.626 187.154C739.259 187.154 746.216 190.925 750.97 197.604C755.691 204.236 758.19 213.658 758.19 224.963C758.19 236.265 755.715 245.723 751.008 252.393C746.267 259.109 739.311 262.92 730.626 262.92C721.948 262.92 714.977 259.164 710.22 252.476C705.496 245.835 703.008 236.388 703.008 225.016C703.008 213.709 705.522 204.274 710.257 197.629C715.023 190.939 721.991 187.154 730.626 187.154ZM730.626 195.652C725.026 195.652 720.562 198.398 717.438 203.411C714.284 208.475 712.508 215.86 712.508 224.963C712.508 234.069 714.261 241.506 717.406 246.621C720.52 251.685 724.985 254.475 730.626 254.475C736.281 254.475 740.742 251.759 743.849 246.755C746.99 241.694 748.745 234.274 748.745 225.016C748.745 215.836 746.968 208.439 743.814 203.382C740.693 198.378 736.229 195.652 730.626 195.652Z" fill="black" stroke="black" stroke-width="2.54671"/>
<path d="M670.841 188.647C670.844 188.648 670.846 188.65 670.849 188.65C683.972 188.733 694.552 197.605 694.552 209.296C694.552 217.631 690.613 223.816 678.52 236.05L678.521 236.051L660.198 254.729H692.143C694.502 254.729 696.414 256.642 696.414 259.001C696.414 261.36 694.502 263.272 692.143 263.272H651.102C648.543 263.272 646.469 261.198 646.469 258.64C646.469 257.436 646.938 256.279 647.775 255.415L672.517 229.888L672.519 229.886C677.708 224.55 680.867 220.913 682.737 217.879C684.566 214.913 685.153 212.538 685.153 209.676C685.153 202.773 678.846 197.086 670.455 197.086C666.155 197.086 662.356 198.025 659.659 199.883C657.021 201.7 655.354 204.444 655.303 208.343H655.304C655.303 210.491 653.561 212.232 651.413 212.232H650.707C648.582 212.232 646.858 210.509 646.858 208.384V207.859C647.097 196.481 656.897 188.636 670.65 188.633L670.841 188.647Z" fill="black" stroke="black" stroke-width="2.54671"/>
<path d="M619.487 189.373C623.883 189.373 627.446 192.937 627.446 197.332V238.452H634.03C636.377 238.452 638.279 240.355 638.279 242.701C638.279 245.048 636.377 246.949 634.03 246.949H627.446V258.359C627.446 260.913 625.376 262.983 622.823 262.983C620.271 262.983 618.201 260.915 618.199 258.362L618.194 246.941H587.393C584.039 246.941 581.32 244.223 581.32 240.87C581.32 239.757 581.626 238.662 582.211 237.709C589.671 225.559 598.638 212.435 613.062 192.643C614.557 190.591 616.948 189.373 619.487 189.373ZM618.193 200.274C606.644 215.973 598.373 228.015 591.731 238.444H618.193V200.274Z" fill="black" stroke="black" stroke-width="2.54671"/>
</svg>
